<svg width="100.000000" height="100.000000" viewBox="0 0 100 100" fill="none" xmlns="http://www.w3.org/2000/svg" xmlns:xlink="http://www.w3.org/1999/xlink">
	<desc>
			Created with Pixso.
	</desc>
	<defs>
		<clipPath id="clip2_11">
			<rect id="png-klev-club-6euz-p-krug-volnistii-png-25" rx="0.000000" width="118.000000" height="115.000000" transform="translate(-8.500000 -7.500000)" fill="white" fill-opacity="0"/>
		</clipPath>
		<clipPath id="clip2_1">
			<rect id="Размер1" width="100.000000" height="100.000000" fill="white" fill-opacity="0"/>
		</clipPath>
	</defs>
	<rect id="Размер1" width="100.000000" height="100.000000" fill="#FFFFFF" fill-opacity="1.000000"/>
	<g clip-path="url(#clip2_1)">
		<g clip-path="url(#clip2_11)">
			<path id="path" d="M47.16 2.24C44.94 2.97 43.17 4.2 42.04 5.83C41.64 6.41 41.28 6.91 41.26 6.96C41.21 7.01 40.69 6.71 40.08 6.34C37.1 4.49 33.68 4.31 30.54 5.81C27.94 7.05 25.76 9.86 25.39 12.42C25.32 12.99 25.2 13.46 25.1 13.46C25.03 13.46 24.32 13.34 23.54 13.23C19.55 12.58 15.23 14.77 13.46 18.32C12.58 20.09 12.23 22.26 12.54 23.94C12.68 24.67 12.8 25.36 12.8 25.43C12.8 25.53 12.32 25.66 11.73 25.73C10.08 25.96 8.07 27 6.73 28.34C3.49 31.58 2.99 36.47 5.52 40.15C5.9 40.71 6.18 41.17 6.13 41.21C6.09 41.24 5.57 41.58 4.98 41.97C0.87 44.69 -0.27 50.68 2.54 54.85C3.25 55.91 5.24 57.73 5.95 57.96C6.11 58.01 5.85 58.61 5.36 59.41C4.03 61.55 3.61 63.63 4.03 65.86C4.76 69.71 7.95 72.91 11.66 73.53C12.56 73.69 12.68 73.79 12.61 74.27C12.21 77.89 12.73 80.26 14.45 82.47C16.67 85.33 20.21 86.62 24.16 85.95L25.24 85.76L25.41 86.89C25.74 89.38 27.96 92.24 30.51 93.46C33.75 95 37.22 94.77 40.2 92.86C40.83 92.44 41.28 92.28 41.33 92.44C41.54 93.09 43.34 95.02 44.33 95.69C47.57 97.86 52.2 97.86 55.43 95.69C56.42 95.02 58.22 93.09 58.43 92.44C58.48 92.28 58.93 92.44 59.57 92.86C62.54 94.77 66.01 95 69.25 93.46C71.8 92.24 74.02 89.38 74.35 86.89L74.52 85.76L75.49 85.95C77 86.25 79.43 86.13 80.75 85.7C83.4 84.84 85.81 82.52 86.78 79.87C87.25 78.62 87.37 76.48 87.16 74.27C87.08 73.79 87.2 73.69 88.15 73.53C90.75 73.09 93.63 70.93 94.83 68.51C96.37 65.45 96.23 62.36 94.41 59.41C93.86 58.54 93.65 58.01 93.82 57.96C94.6 57.71 96.63 55.79 97.31 54.69C98.45 52.82 98.85 51.28 98.73 49.07C98.56 46.12 97.12 43.52 94.79 41.97C94.19 41.58 93.65 41.21 93.6 41.17C93.56 41.14 93.68 40.91 93.86 40.71C94.57 39.9 95.45 37.92 95.73 36.42C96.27 33.61 95.21 30.48 92.99 28.31C91.6 26.98 89.66 25.96 88.03 25.73C87.44 25.66 86.97 25.53 86.97 25.43C86.97 25.36 87.08 24.67 87.23 23.94C87.53 22.26 87.18 20.09 86.31 18.32C84.53 14.77 80.21 12.58 76.22 13.23C75.44 13.34 74.73 13.46 74.66 13.46C74.57 13.46 74.45 12.99 74.38 12.42C74 9.86 71.83 7.05 69.23 5.81C66.09 4.31 62.66 4.49 59.68 6.34C59.07 6.71 58.55 7.01 58.5 6.96C58.48 6.91 58.13 6.41 57.72 5.83C56.8 4.49 55.53 3.5 53.73 2.7C52.62 2.19 51.96 2.05 50.24 2.01C48.94 1.96 47.76 2.05 47.16 2.24ZM53.5 3.85C55.08 4.63 56.57 6.04 57.35 7.51C57.68 8.13 58.08 8.62 58.29 8.62C58.5 8.62 59.09 8.25 59.64 7.81C60.98 6.68 62.85 6.06 64.88 6.04C69.25 6.04 72.63 8.92 73.24 13.13C73.38 13.99 73.57 14.77 73.67 14.86C73.79 14.98 74.38 14.91 75.01 14.72C76.74 14.22 79.12 14.28 80.75 14.88C82.67 15.57 84.79 17.67 85.53 19.56C86.19 21.22 86.23 23.68 85.69 25.18C85.2 26.49 85.41 26.72 87.27 26.86C93.7 27.37 96.96 35.45 92.66 40.22C92.26 40.68 91.93 41.21 91.93 41.42C91.93 41.63 92.42 42.02 93.06 42.34C94.57 43.1 96.01 44.55 96.82 46.12C97.41 47.27 97.48 47.69 97.48 49.62C97.48 51.51 97.38 51.99 96.84 53.12C96.11 54.67 94.5 56.28 92.99 56.99C92.4 57.27 91.93 57.66 91.93 57.85C91.93 58.03 92.26 58.56 92.66 59.02C95.45 62.11 95.21 67.15 92.14 70.15C90.94 71.32 88.69 72.33 86.92 72.54C86.16 72.61 85.5 72.77 85.43 72.89C85.36 72.98 85.48 73.51 85.67 74.06C86.07 75.17 86.19 77.38 85.9 78.65C85.41 80.93 83.49 83.14 81.11 84.24C79.83 84.82 79.31 84.94 77.8 84.91C76.72 84.91 75.56 84.77 74.94 84.54C74.33 84.34 73.81 84.24 73.69 84.36C73.57 84.47 73.38 85.26 73.24 86.11C72.3 92.61 64.46 95.58 59.47 91.32C59.05 90.92 58.5 90.62 58.31 90.62C58.13 90.62 57.72 91.09 57.44 91.66C56.71 93.14 55.05 94.7 53.47 95.42C52.31 95.95 51.82 96.04 49.88 96.04C47.94 96.04 47.45 95.95 46.29 95.42C44.71 94.7 43.05 93.14 42.32 91.66C42.04 91.09 41.64 90.62 41.45 90.62C41.26 90.62 40.72 90.92 40.29 91.32C35.31 95.58 27.46 92.61 26.52 86.11C26.38 85.26 26.19 84.47 26.07 84.36C25.95 84.24 25.43 84.34 24.82 84.54C24.2 84.77 23.05 84.91 21.96 84.91C20.45 84.94 19.93 84.82 18.65 84.24C14.54 82.36 12.61 77.77 14.21 73.72C14.35 73.35 14.38 72.96 14.28 72.86C14.19 72.77 13.36 72.59 12.49 72.45C10.46 72.15 8.95 71.46 7.67 70.22C4.55 67.17 4.29 62.13 7.1 59.02C7.5 58.56 7.84 58.03 7.84 57.85C7.84 57.66 7.36 57.27 6.77 56.99C5.26 56.28 3.65 54.67 2.92 53.12C2.38 51.99 2.28 51.51 2.28 49.62C2.28 47.69 2.36 47.27 2.95 46.12C3.75 44.55 5.19 43.1 6.7 42.34C7.34 42.02 7.84 41.63 7.84 41.42C7.84 41.21 7.5 40.68 7.1 40.22C4.95 37.85 4.53 34.14 6.06 31.19C7.29 28.82 9.98 27.05 12.61 26.86C14.33 26.72 14.57 26.49 14.07 25.18C13.53 23.68 13.58 21.22 14.24 19.56C14.97 17.67 17.09 15.57 19.01 14.88C20.64 14.28 23.02 14.22 24.75 14.72C25.39 14.91 25.98 14.98 26.09 14.86C26.19 14.77 26.38 13.99 26.52 13.13C27.13 8.92 30.51 6.04 34.88 6.04C36.91 6.06 38.78 6.68 40.13 7.81C40.67 8.25 41.26 8.62 41.47 8.62C41.68 8.62 42.06 8.18 42.35 7.63C43.36 5.67 45.04 4.22 47.14 3.5C48.94 2.88 51.75 3.04 53.5 3.85Z" fill="#66CCA0" fill-opacity="1.000000" fill-rule="nonzero"/>
			<path id="path" d="M42.04 5.83C41.64 6.41 41.28 6.91 41.26 6.96C41.21 7.01 40.69 6.71 40.08 6.34C37.1 4.49 33.68 4.31 30.54 5.81C27.94 7.05 25.76 9.86 25.39 12.42C25.32 12.99 25.2 13.46 25.1 13.46C25.03 13.46 24.32 13.34 23.54 13.23C19.55 12.58 15.23 14.77 13.46 18.32C12.58 20.09 12.23 22.26 12.54 23.94C12.68 24.67 12.8 25.36 12.8 25.43C12.8 25.53 12.32 25.66 11.73 25.73C10.08 25.96 8.07 27 6.73 28.34C3.49 31.58 2.99 36.47 5.52 40.15C5.9 40.71 6.18 41.17 6.13 41.21C6.09 41.24 5.57 41.58 4.98 41.97C0.87 44.69 -0.27 50.68 2.54 54.85C3.25 55.91 5.24 57.73 5.95 57.96C6.11 58.01 5.85 58.61 5.36 59.41C4.03 61.55 3.61 63.63 4.03 65.86C4.76 69.71 7.95 72.91 11.66 73.53C12.56 73.69 12.68 73.79 12.61 74.27C12.21 77.89 12.73 80.26 14.45 82.47C16.67 85.33 20.21 86.62 24.16 85.95L25.24 85.76L25.41 86.89C25.74 89.38 27.96 92.24 30.51 93.46C33.75 95 37.22 94.77 40.2 92.86C40.83 92.44 41.28 92.28 41.33 92.44C41.54 93.09 43.34 95.02 44.33 95.69C47.57 97.86 52.2 97.86 55.43 95.69C56.42 95.02 58.22 93.09 58.43 92.44C58.48 92.28 58.93 92.44 59.57 92.86C62.54 94.77 66.01 95 69.25 93.46C71.8 92.24 74.02 89.38 74.35 86.89L74.52 85.76L75.49 85.95C77 86.25 79.43 86.13 80.75 85.7C83.4 84.84 85.81 82.52 86.78 79.87C87.25 78.62 87.37 76.48 87.16 74.27C87.08 73.79 87.2 73.69 88.15 73.53C90.75 73.09 93.63 70.93 94.83 68.51C96.37 65.45 96.23 62.36 94.41 59.41C93.86 58.54 93.65 58.01 93.82 57.96C94.6 57.71 96.63 55.79 97.31 54.69C98.45 52.82 98.85 51.28 98.73 49.07C98.56 46.12 97.12 43.52 94.79 41.97C94.19 41.58 93.65 41.21 93.6 41.17C93.56 41.14 93.68 40.91 93.86 40.71C94.57 39.9 95.45 37.92 95.73 36.42C96.27 33.61 95.21 30.48 92.99 28.31C91.6 26.98 89.66 25.96 88.03 25.73C87.44 25.66 86.97 25.53 86.97 25.43C86.97 25.36 87.08 24.67 87.23 23.94C87.53 22.26 87.18 20.09 86.31 18.32C84.53 14.77 80.21 12.58 76.22 13.23C75.44 13.34 74.73 13.46 74.66 13.46C74.57 13.46 74.45 12.99 74.38 12.42C74 9.86 71.83 7.05 69.23 5.81C66.09 4.31 62.66 4.49 59.68 6.34C59.07 6.71 58.55 7.01 58.5 6.96C58.48 6.91 58.13 6.41 57.72 5.83C56.8 4.49 55.53 3.5 53.73 2.7C52.62 2.19 51.96 2.05 50.24 2.01C48.94 1.96 47.76 2.05 47.16 2.24C44.94 2.97 43.17 4.2 42.04 5.83ZM57.35 7.51C57.68 8.13 58.08 8.62 58.29 8.62C58.5 8.62 59.09 8.25 59.64 7.81C60.98 6.68 62.85 6.06 64.88 6.04C69.25 6.04 72.63 8.92 73.24 13.13C73.38 13.99 73.57 14.77 73.67 14.86C73.79 14.98 74.38 14.91 75.01 14.72C76.74 14.22 79.12 14.28 80.75 14.88C82.67 15.57 84.79 17.67 85.53 19.56C86.19 21.22 86.23 23.68 85.69 25.18C85.2 26.49 85.41 26.72 87.27 26.86C93.7 27.37 96.96 35.45 92.66 40.22C92.26 40.68 91.93 41.21 91.93 41.42C91.93 41.63 92.42 42.02 93.06 42.34C94.57 43.1 96.01 44.55 96.82 46.12C97.41 47.27 97.48 47.69 97.48 49.62C97.48 51.51 97.38 51.99 96.84 53.12C96.11 54.67 94.5 56.28 92.99 56.99C92.4 57.27 91.93 57.66 91.93 57.85C91.93 58.03 92.26 58.56 92.66 59.02C95.45 62.11 95.21 67.15 92.14 70.15C90.94 71.32 88.69 72.33 86.92 72.54C86.16 72.61 85.5 72.77 85.43 72.89C85.36 72.98 85.48 73.51 85.67 74.06C86.07 75.17 86.19 77.38 85.9 78.65C85.41 80.93 83.49 83.14 81.11 84.24C79.83 84.82 79.31 84.94 77.8 84.91C76.72 84.91 75.56 84.77 74.94 84.54C74.33 84.34 73.81 84.24 73.69 84.36C73.57 84.47 73.38 85.26 73.24 86.11C72.3 92.61 64.46 95.58 59.47 91.32C59.05 90.92 58.5 90.62 58.31 90.62C58.13 90.62 57.72 91.09 57.44 91.66C56.71 93.14 55.05 94.7 53.47 95.42C52.31 95.95 51.82 96.04 49.88 96.04C47.94 96.04 47.45 95.95 46.29 95.42C44.71 94.7 43.05 93.14 42.32 91.66C42.04 91.09 41.64 90.62 41.45 90.62C41.26 90.62 40.72 90.92 40.29 91.32C35.31 95.58 27.46 92.61 26.52 86.11C26.38 85.26 26.19 84.47 26.07 84.36C25.95 84.24 25.43 84.34 24.82 84.54C24.2 84.77 23.05 84.91 21.96 84.91C20.45 84.94 19.93 84.82 18.65 84.24C14.54 82.36 12.61 77.77 14.21 73.72C14.35 73.35 14.38 72.96 14.28 72.86C14.19 72.77 13.36 72.59 12.49 72.45C10.46 72.15 8.95 71.46 7.67 70.22C4.55 67.17 4.29 62.13 7.1 59.02C7.5 58.56 7.84 58.03 7.84 57.85C7.84 57.66 7.36 57.27 6.77 56.99C5.26 56.28 3.65 54.67 2.92 53.12C2.38 51.99 2.28 51.51 2.28 49.62C2.28 47.69 2.36 47.27 2.95 46.12C3.75 44.55 5.19 43.1 6.7 42.34C7.34 42.02 7.84 41.63 7.84 41.42C7.84 41.21 7.5 40.68 7.1 40.22C4.95 37.85 4.53 34.14 6.06 31.19C7.29 28.82 9.98 27.05 12.61 26.86C14.33 26.72 14.57 26.49 14.07 25.18C13.53 23.68 13.58 21.22 14.24 19.56C14.97 17.67 17.09 15.57 19.01 14.88C20.64 14.28 23.02 14.22 24.75 14.72C25.39 14.91 25.98 14.98 26.09 14.86C26.19 14.77 26.38 13.99 26.52 13.13C27.13 8.92 30.51 6.04 34.88 6.04C36.91 6.06 38.78 6.68 40.13 7.81C40.67 8.25 41.26 8.62 41.47 8.62C41.68 8.62 42.06 8.18 42.35 7.63C43.36 5.67 45.04 4.22 47.14 3.5C48.94 2.88 51.75 3.04 53.5 3.85C55.08 4.63 56.57 6.04 57.35 7.51Z" stroke="#000000" stroke-opacity="0" stroke-width="5.000000"/>
			<path id="Линия 3" d="M30.47 52.29L51.2 70.61L47.89 74.35L27.16 56.04C26.11 55.11 26.01 53.56 26.94 52.51C27.87 51.46 29.42 51.36 30.47 52.29Z" fill="#66CCA0" fill-opacity="1.000000" fill-rule="evenodd"/>
			<path id="Линия 4" d="M75.41 41.69L49.51 75.33L45.55 72.28L71.45 38.64C72.31 37.53 73.85 37.33 74.96 38.19C76.07 39.04 76.27 40.58 75.41 41.69Z" fill="#66CCA0" fill-opacity="1.000000" fill-rule="evenodd"/>
		</g>
		<rect id="png-klev-club-6euz-p-krug-volnistii-png-25" rx="0.000000" width="118.000000" height="115.000000" transform="translate(-8.500000 -7.500000)" stroke="#FFFFFF" stroke-opacity="1.000000" stroke-width="3.000000"/>
	</g>
</svg>
