<svg width="35.000000" height="64.000000" viewBox="0 0 35 64" fill="none" xmlns="http://www.w3.org/2000/svg" xmlns:xlink="http://www.w3.org/1999/xlink">
	<desc>
			Created with Pixso.
	</desc>
	<defs/>
	<path id="arrow" d="M17.85 63L17.14 63C13.55 57.14 8.12 52.22 1 50.41C0.99 50.41 1.29 50 1.3 49.97C1.31 49.95 1.29 50 1.3 50C6.75 51.37 13.21 56.56 17.14 60.35C16.63 41.8 17.39 19.54 16.78 1L18.21 1L17.85 60.35C21.78 56.56 28.49 51.48 34 50.1L34 50.74C26.86 52.53 22.52 56.35 17.85 63Z" fill="#F5F3EA" fill-opacity="1.000000" fill-rule="evenodd"/>
	<path id="arrow" d="M34 50.1C28.49 51.48 21.78 56.56 17.85 60.35L18.21 1L16.78 1C17.39 19.54 16.63 41.8 17.14 60.35C13.21 56.56 6.75 51.37 1.3 50C1.29 50 1.31 49.95 1.3 49.97C1.29 50 0.99 50.41 1 50.41C8.12 52.22 13.55 57.14 17.14 63L17.85 63C22.52 56.35 26.86 52.53 34 50.74L34 50.1Z" stroke="#F5F3EA" stroke-opacity="1.000000" stroke-width="2.000000"/>
</svg>
