<?xml version="1.0" standalone="no"?>
<svg xmlns:xlink="http://www.w3.org/1999/xlink" id="wave" style="transform:rotate(180deg); transition: 0.3s" viewBox="0 0 1440 100" version="1.1" xmlns="http://www.w3.org/2000/svg"><defs><linearGradient id="sw-gradient-0" x1="0" x2="0" y1="1" y2="0"><stop stop-color="rgba(197, 206, 189, 1)" offset="0%"/><stop stop-color="rgba(197, 206, 189, 1)" offset="100%"/></linearGradient></defs><path style="transform:translate(0, 0px); opacity:1" fill="url(#sw-gradient-0)" d="M0,70L10,63.3C20,57,40,43,60,35C80,27,100,23,120,33.3C140,43,160,67,180,70C200,73,220,57,240,56.7C260,57,280,73,300,68.3C320,63,340,37,360,31.7C380,27,400,43,420,53.3C440,63,460,67,480,58.3C500,50,520,30,540,30C560,30,580,50,600,58.3C620,67,640,63,660,51.7C680,40,700,20,720,20C740,20,760,40,780,41.7C800,43,820,27,840,25C860,23,880,37,900,45C920,53,940,57,960,55C980,53,1000,47,1020,46.7C1040,47,1060,53,1080,60C1100,67,1120,73,1140,75C1160,77,1180,73,1200,61.7C1220,50,1240,30,1260,30C1280,30,1300,50,1320,50C1340,50,1360,30,1380,20C1400,10,1420,10,1430,10L1440,10L1440,100L1430,100C1420,100,1400,100,1380,100C1360,100,1340,100,1320,100C1300,100,1280,100,1260,100C1240,100,1220,100,1200,100C1180,100,1160,100,1140,100C1120,100,1100,100,1080,100C1060,100,1040,100,1020,100C1000,100,980,100,960,100C940,100,920,100,900,100C880,100,860,100,840,100C820,100,800,100,780,100C760,100,740,100,720,100C700,100,680,100,660,100C640,100,620,100,600,100C580,100,560,100,540,100C520,100,500,100,480,100C460,100,440,100,420,100C400,100,380,100,360,100C340,100,320,100,300,100C280,100,260,100,240,100C220,100,200,100,180,100C160,100,140,100,120,100C100,100,80,100,60,100C40,100,20,100,10,100L0,100Z"/></svg>