<svg width="110" height="111" viewBox="0 0 110 111" fill="none" xmlns="http://www.w3.org/2000/svg">
<path d="M87.6468 28.9919C81.9094 3.24719 74.8148 13.3743 59.6797 13.3743C50.6318 -3.97864 38.417 14.1888 36.648 18.3226C34.8789 22.4564 11.1485 13.3743 16.9065 37.6684C14.4179 48.3727 -8.59256 55.0213 16.9065 75.8448C18.8258 80.4723 10.3264 105.345 36.648 94.9331C36.648 94.9331 52.2768 116.624 66.2602 99.2713C66.2602 99.2713 91.7802 110.835 87.6468 82.786C90.937 80.4723 113.146 75.8449 97.5175 55.0213C118.904 28.9919 87.6468 28.9919 87.6468 28.9919Z" stroke="#9ca295" stroke-width="10"/>
<path d="M45.3331 56.5403C49.954 68.4825 51.4037 73.0021 52.5803 78.3684" stroke="#9ca295" stroke-width="10" stroke-linecap="round"/>
<path d="M54.4144 78.0534C58.0905 68.2464 62.558 60.591 74.5537 43.3195" stroke="#9ca295" stroke-width="10" stroke-linecap="round"/>
</svg>
