<svg width="470.591797" height="228.444214" viewBox="0 0 470.592 228.444" fill="none" xmlns="http://www.w3.org/2000/svg" xmlns:xlink="http://www.w3.org/1999/xlink">
	<desc>
			Created with Pixso.
	</desc>
	<defs/>
	<path id="path" d="M127.67 3.95L150.93 0L150.93 178.15L127.67 181.86L127.67 77.44C91.05 77.44 59.63 93.03 23.01 93.03L23.01 178.15L0 181.86L0 3.95L23.01 0L23.01 89.07C59.63 89.07 91.05 73.48 127.67 73.48L127.67 3.95ZM247.32 178.15C263.15 176.91 277.51 168.25 286.17 154.89L289.88 162.56C278.25 174.19 255.73 182.11 239.65 182.11C203.28 182.11 173.58 161.32 170.37 120C170.12 117.53 170.12 115.05 170.12 112.33C170.12 65.81 201.05 42.55 239.65 42.55C241.63 42.55 243.86 42.8 245.83 42.8C246.58 42.8 247.32 43.05 248.06 43.05C249.3 43.3 250.54 43.3 251.77 43.54C252.76 43.54 253.5 43.79 254.49 43.79C255.48 44.04 256.47 44.29 257.46 44.53C258.45 44.78 259.44 44.78 260.43 45.03C261.18 45.28 262.17 45.52 263.15 45.77C264.14 46.02 265.13 46.51 265.88 46.76C266.87 47.01 267.61 47.25 268.6 47.75C269.34 48 270.33 48.49 271.32 48.74C272.06 49.23 272.8 49.48 273.55 49.73C274.54 50.22 275.53 50.72 276.27 51.21C277.01 51.71 277.75 51.96 278.5 52.45C279.49 52.95 280.23 53.44 280.97 53.94C281.46 54.18 281.96 54.43 282.21 54.68C296.31 64.58 305.71 79.92 307.94 96.74L286.17 96.74C253.5 96.74 225.54 111.09 193.13 112.08L193.13 112.33C193.13 158.85 224.31 178.15 247.32 178.15ZM231.98 46.51C202.29 46.51 193.87 78.43 193.38 108.37C224.8 107.13 252.27 93.52 283.94 93.03C282.21 84.86 278.99 77.19 274.54 70.27C273.3 68.29 271.81 66.8 270.58 65.07C270.33 64.82 270.08 64.33 269.59 64.08C268.6 62.84 267.36 61.61 266.12 60.37C265.63 60.12 265.13 59.63 264.89 59.38C263.4 58.14 261.92 56.9 260.19 55.67C258.45 54.43 256.72 53.44 254.99 52.7C254.74 52.45 254.25 52.2 253.75 51.96C252.52 51.21 251.03 50.72 249.55 49.98C249.3 49.98 248.8 49.73 248.56 49.73C246.82 48.99 245.09 48.49 243.36 48C243.11 48 242.62 47.75 242.37 47.75C240.89 47.5 239.65 47.25 238.16 47.01C237.67 47.01 237.17 46.76 236.93 46.76C235.19 46.51 233.46 46.51 231.98 46.51ZM432.34 42.55L436.05 44.04L366.52 214.03C359.1 232.09 333.37 230.85 323.72 222.93L327.43 215.26C335.35 221.7 355.64 229.86 362.81 212.54L383.1 163.3L368.26 173.69L308.62 56.41L327.68 42.8L385.58 156.87L432.34 42.55ZM458.96 181.86C452.77 181.86 447.58 176.66 447.58 170.48C447.58 164.04 452.77 158.85 458.96 158.85C465.39 158.85 470.59 164.04 470.59 170.48C470.59 176.66 465.39 181.86 458.96 181.86ZM466.88 131.63L451.29 135.59L447.58 3.95L470.59 0L466.88 131.63Z" fill="#C4A1A8" fill-opacity="1.000000" fill-rule="nonzero"/>
</svg>
