<svg width="400.217896" height="664.128540" viewBox="0 0 400.218 664.129" fill="none" xmlns="http://www.w3.org/2000/svg" xmlns:xlink="http://www.w3.org/1999/xlink">
	<desc>
			Created with Pixso.
	</desc>
	<defs/>
	<path id="Форма 1" d="M128.5 32.17C124.51 18.76 131.91 5.07 145.33 1.08C158.74 -2.92 172.43 4.48 176.42 17.9Q182.25 37.45 191.13 69.3Q200.57 103.12 205.41 118.14Q212.98 141.62 222.35 162.86Q243.36 210.49 295.76 293.72L260.24 327.51L147.21 248.24Q155.03 260.98 162.34 273.98Q209.78 358.33 228.58 441.73Q245.63 517.41 238.28 589.07L362.1 513.5C374.05 506.21 389.17 509.87 396.47 521.82C403.76 533.77 400.1 548.89 388.15 556.18L217.44 660.38C205.49 667.67 190.37 664.01 183.07 652.06L78.88 481.35C71.58 469.4 75.24 454.28 87.19 446.98C99.14 439.69 114.26 443.35 121.56 455.3L189.87 567.22Q193.04 511.49 179.8 452.72Q162.62 376.46 118.76 298.49Q87.22 242.4 45.41 191.24C31.59 174.33 19.98 161.25 10.58 152L10.71 151.85L7.89 149.18C-2.26 139.54 -2.68 123.99 6.96 113.83C16.59 103.68 32.14 103.26 42.3 112.9L45.12 115.57L194.99 220.67Q184.05 199.92 176.61 183.05Q166.19 159.43 157.82 133.48Q152.67 117.51 142.97 82.74Q134.21 51.31 128.5 32.17Z" fill="#F95454" fill-opacity="1.000000" fill-rule="evenodd"/>
	<path id="Линия 1" d="M229.1 261.04L275.1 307.04" stroke="#F95454" stroke-opacity="1.000000" stroke-width="50.000000" stroke-linecap="round"/>
</svg>
