<svg width="400.217896" height="664.128540" viewBox="0 0 400.218 664.129" fill="none" xmlns="http://www.w3.org/2000/svg" xmlns:xlink="http://www.w3.org/1999/xlink">
	<desc>
			Created with Pixso.
	</desc>
	<defs/>
	<path id="Форма 1" d="M176.42 17.9C172.43 4.48 158.74 -2.92 145.33 1.08C131.91 5.07 124.51 18.76 128.5 32.17Q134.21 51.31 142.97 82.74Q152.67 117.51 157.82 133.48Q166.19 159.43 176.61 183.05Q184.05 199.92 194.99 220.67L45.12 115.57L42.3 112.9C32.14 103.26 16.59 103.68 6.96 113.83C-2.68 123.99 -2.26 139.54 7.89 149.18L10.71 151.85L10.58 152Q24.68 165.87 45.41 191.24Q87.22 242.4 118.76 298.49Q162.62 376.46 179.8 452.72Q193.04 511.49 189.87 567.22L121.56 455.3C114.26 443.35 99.14 439.69 87.19 446.98C75.24 454.28 71.58 469.4 78.88 481.35L183.07 652.06C190.37 664.01 205.49 667.67 217.44 660.38L388.15 556.18C400.1 548.89 403.76 533.77 396.47 521.82C389.17 509.87 374.05 506.21 362.1 513.5L238.28 589.07Q245.63 517.41 228.58 441.73Q209.78 358.33 162.34 273.98Q155.03 260.98 147.21 248.24L260.24 327.51L295.76 293.72Q243.36 210.49 222.35 162.86Q212.98 141.62 205.41 118.14Q200.57 103.12 191.13 69.3Q182.25 37.45 176.42 17.9Z" fill="#C3B8E0" fill-opacity="1.000000" fill-rule="evenodd"/>
	<path id="Линия 1" d="M229.1 261.04L275.1 307.04" stroke="#C3B8E0" stroke-opacity="1.000000" stroke-width="50.000000" stroke-linecap="round"/>
</svg>
