<svg width="20.000000" height="20.000000" viewBox="0 0 20 20" fill="none" xmlns="http://www.w3.org/2000/svg" xmlns:xlink="http://www.w3.org/1999/xlink">
	<desc>
			Created with Pixso.
	</desc>
	<defs/>
	<g style="mix-blend-mode:normal">
		<path id="path" d="M10 0C4.48 0 0 4.48 0 10C0 15.51 4.48 20 10 20C15.51 20 20 15.51 20 10C20 4.48 15.51 0 10 0ZM10 2C14.43 2 18 5.56 18 10C18 14.43 14.43 18 10 18C5.56 18 2 14.43 2 10C2 5.56 5.56 2 10 2ZM9 4L9 10.41L13.29 14.7L14.7 13.29L11 9.58L11 4L9 4Z" fill="#C4A1A8" fill-opacity="1.000000" fill-rule="nonzero"/>
		<path id="path" d="M0 10C0 15.51 4.48 20 10 20C15.51 20 20 15.51 20 10C20 4.48 15.51 0 10 0C4.48 0 0 4.48 0 10ZM18 10C18 14.43 14.43 18 10 18C5.56 18 2 14.43 2 10C2 5.56 5.56 2 10 2C14.43 2 18 5.56 18 10ZM9 10.41L13.29 14.7L14.7 13.29L11 9.58L11 4L9 4L9 10.41Z" stroke="#000000" stroke-opacity="0" stroke-width="1.000000"/>
	</g>
</svg>
