<svg width="27.172852" height="27.036346" viewBox="0 0 27.1729 27.0363" fill="none" xmlns="http://www.w3.org/2000/svg" xmlns:xlink="http://www.w3.org/1999/xlink">
	<desc>
			Created with Pixso.
	</desc>
	<defs/>
	<path id="Эллипс 2" d="M26.74 10.48Q28.1 15.89 25.16 20.59Q22.26 25.22 16.82 26.59Q11.4 27.96 6.6 25.09Q1.8 22.22 0.44 16.8Q-0.93 11.38 1.94 6.57Q4.81 1.77 10.23 0.41Q12.84 -0.25 15.49 0.14Q18.14 0.53 20.45 1.91L18.91 4.49Q17.11 3.41 15.05 3.11Q13 2.81 10.96 3.32Q6.74 4.38 4.51 8.11Q2.28 11.85 3.34 16.06Q4.41 20.28 8.14 22.51Q11.87 24.74 16.09 23.68Q20.36 22.61 22.62 19Q24.88 15.38 23.83 11.21L26.74 10.48Z" fill="#C4A1A8" fill-opacity="1.000000" fill-rule="evenodd"/>
</svg>
