<svg width="500.000000" height="600.000000" viewBox="0 0 500 600" fill="none" xmlns="http://www.w3.org/2000/svg" xmlns:xlink="http://www.w3.org/1999/xlink">
	<desc>
			Created with Pixso.
	</desc>
	<defs/>
	<path id="path" d="M259.49 533.11C255.22 536.25 251.24 539.09 247.6 541.64C243.72 539.07 239.42 536.11 234.75 532.77C212.75 517.03 184.21 493.92 156.11 465.09C98.46 405.97 50 330.5 50 250C50 139.54 139.54 50 250 50C360.45 50 450 139.54 450 250C450 329.64 399.39 404.89 339.64 464.64C310.65 493.63 281.48 516.99 259.49 533.11ZM500 250C500 450 250 600 250 600C237.5 600 0 450 0 250C0 111.92 111.92 0 250 0C388.07 0 500 111.92 500 250ZM300 250C300 277.61 277.61 300 250 300C222.38 300 200 277.61 200 250C200 222.38 222.38 200 250 200C277.61 200 300 222.38 300 250ZM350 250C350 305.23 305.23 350 250 350C194.77 350 150 305.23 150 250C150 194.77 194.77 150 250 150C305.23 150 350 194.77 350 250Z" fill="#C4A1A8" fill-opacity="1.000000" fill-rule="evenodd"/>
</svg>
