<svg width="470.583984" height="182.110657" viewBox="0 0 470.584 182.111" fill="none" xmlns="http://www.w3.org/2000/svg" xmlns:xlink="http://www.w3.org/1999/xlink">
	<desc>
			Created with Pixso.
	</desc>
	<defs/>
	<path id="path" d="M69.52 166.52L77.19 174.19C72 179.14 65.07 181.86 57.89 181.86C30.92 181.86 15.34 166.52 15.34 131.63L15.34 50.47L0 50.47L0 46.51L15.34 46.51L15.34 23.25L38.59 19.29L38.59 46.51L69.52 46.51L69.52 50.47L38.59 50.47L38.59 135.59C38.59 162.56 42.55 178.15 57.89 178.15C65.56 178.15 69.52 166.52 69.52 166.52ZM190.52 46.51L213.78 42.55L213.78 178.15L190.52 181.86L190.52 167.01C177.16 177.16 160.83 182.35 144 181.86C105.4 181.86 74.47 158.85 74.47 112.33C74.47 65.81 105.4 42.55 144 42.55C160.83 42.06 177.16 47.5 190.52 57.65L190.52 46.51ZM151.67 178.15C167.26 177.41 181.61 169.49 190.52 156.87L190.52 71.5C176.42 56.41 156.87 47.5 136.33 46.51C105.4 46.51 97.49 81.4 97.49 112.33C97.49 158.85 128.42 178.15 151.67 178.15ZM208.38 0C231.39 0 254.65 7.91 254.65 34.88L254.65 178.15L231.39 181.86L231.39 34.88C231.39 7.91 219.76 3.95 212.09 3.95L208.38 0ZM326.95 101.2C366.3 105.65 391.04 155.88 391.04 178.15L373.97 182.11C373.97 162.81 360.36 106.14 322.75 104.66L301.96 121.98L301.96 177.9L278.95 181.86L278.95 3.71L301.96 0L301.96 117.03L321.51 100.7L390.79 42.55L393.51 45.52L326.95 101.2Z" fill="#C4A1A8" fill-opacity="1.000000" fill-rule="nonzero"/>
	<path id="path" d="M457.07 154.98C456.63 155.32 456.16 155.63 455.75 156.01C455.23 156.51 454.62 156.88 454 157.23C453.89 157.29 453.79 157.25 453.74 157.14C453.72 157.1 453.72 157.03 453.74 156.99C453.86 156.83 453.97 156.66 454.11 156.52C454.77 155.88 455.44 155.24 456.11 154.62C456.5 154.27 456.81 153.87 456.95 153.37C457.14 152.67 457.49 152.05 457.87 151.44C458.35 150.66 458.85 149.88 459.29 149.08C460 147.78 460.68 146.47 461.35 145.15C461.52 144.84 461.62 144.49 461.72 144.15C461.94 143.42 462.1 142.67 462.55 142.02C462.84 141.6 462.89 141.07 462.9 140.55C462.98 140.37 463.09 140.2 463.12 140C463.28 138.95 463.38 137.89 463.35 136.81C463.3 135.48 463.15 134.17 462.9 132.86C462.67 131.7 462.27 130.59 461.88 129.48C461.61 128.7 461.11 128.04 460.6 127.4C459.96 126.61 459.26 125.86 458.51 125.17C457.66 124.38 456.7 123.83 455.61 123.5C454.44 123.14 453.26 122.81 452.04 122.65C450.92 122.5 449.82 122.5 448.7 122.75C446.33 123.29 444.12 124.2 442.11 125.54C440.41 126.67 438.86 128.01 437.57 129.63C437.1 130.23 436.66 130.86 436.34 131.56C435.89 132.54 435.32 133.45 434.95 134.47C434.75 135.05 434.51 135.61 434.43 136.23C434.37 136.71 434.15 137.07 433.71 137.33C433.33 137.55 433.19 137.91 433.26 138.38C433.39 139.28 432.97 139.84 432.01 140.09C431.38 139.78 430.7 139.44 430.03 139.08C429.91 139.02 429.82 138.87 429.74 138.74C429.33 137.98 428.68 137.49 427.9 137.2C427.45 137.03 427.11 136.76 426.83 136.39C425.89 135.17 424.95 133.96 423.93 132.82C421.95 130.58 419.53 129.06 416.65 128.22C413.92 127.42 411.21 127.51 408.48 128.14C407.19 128.45 405.94 128.91 404.74 129.48C404.65 129.53 404.55 129.56 404.46 129.61C402.55 130.53 401.1 131.9 400.23 133.86C399.52 135.46 398.99 137.12 398.91 138.88C398.86 139.85 398.83 140.82 398.85 141.79C398.89 143.81 399.42 145.74 400.12 147.61C400.81 149.49 401.84 151.2 402.98 152.85C403.21 153.18 403.46 153.51 403.69 153.85C403.89 154.13 404.15 154.2 404.48 154.19C404.78 154.19 404.9 154.34 404.87 154.71C404.84 155.05 404.95 155.31 405.17 155.53C405.77 156.16 406.39 156.77 407 157.39C407.39 157.79 407.79 158.19 408.18 158.59C408.89 159.32 409.61 160.05 410.44 160.65C410.61 160.77 410.77 160.9 410.92 161.04C412.37 162.41 414 163.56 415.62 164.72C416.95 165.67 418.25 166.66 419.58 167.61C420.5 168.26 421.45 168.86 422.38 169.48C424.64 170.98 426.89 172.48 429.15 173.97C429.93 174.47 430.59 175.11 431.28 175.73C431.57 175.99 431.77 176.37 431.97 176.72C432.28 177.26 431.88 177.95 431.28 177.94C430.98 177.93 430.67 177.91 430.37 177.85C429.78 177.75 429.25 177.87 428.78 178.23C428.49 178.44 428.2 178.65 427.92 178.86C427.67 179.05 427.42 179.22 427.18 179.42C426.5 179.99 425.77 179.98 425.05 179.55C424.26 179.09 423.54 178.51 422.86 177.9C422.83 177.87 422.82 177.8 422.83 177.75C422.86 177.64 422.95 177.6 423.07 177.61C423.27 177.65 423.48 177.67 423.68 177.7C423.88 177.89 424.09 177.87 424.29 177.71C424.57 177.5 424.61 177.33 424.38 177.22C424.25 177.16 424.11 177.14 423.98 177.11C424.09 177.32 424.19 177.5 424.29 177.71C424.08 177.71 423.89 177.7 423.68 177.7C423.44 177.45 423.18 177.21 422.94 176.95C422.83 176.83 422.79 176.63 422.9 176.53C423.01 176.44 423.15 176.3 423.27 176.31C423.51 176.33 423.75 176.43 423.99 176.49C424.29 176.56 424.58 176.63 424.88 176.68C424.97 176.69 425.12 176.66 425.16 176.6C425.41 176.22 425.63 175.84 425.85 175.44C425.88 175.37 425.83 175.23 425.78 175.16C425.29 174.42 424.64 173.85 423.82 173.51C422.97 173.16 422.17 172.76 421.47 172.14C420.96 171.69 420.28 171.58 419.63 171.46C419.6 171.46 419.54 171.51 419.52 171.54C419.5 171.58 419.51 171.66 419.54 171.68C419.82 171.9 420.08 172.12 420.12 172.52C420.13 172.72 420.24 172.91 420.3 173.1C419.72 173.21 419.23 172.82 418.67 172.83C418.59 172.83 418.52 172.91 418.46 172.97C418.44 172.99 418.47 173.07 418.5 173.11C418.56 173.18 418.64 173.26 418.72 173.32C418.87 173.45 419.04 173.57 419.2 173.7C419.41 173.87 419.51 174.15 419.42 174.21C419.27 174.31 419.13 174.25 418.99 174.2C418.02 173.85 417.19 173.24 416.35 172.66C415.34 171.97 414.35 171.24 413.27 170.67C413.04 170.55 412.83 170.38 412.59 170.32C411.78 170.09 411.15 169.57 410.51 169.07C409.9 168.6 409.25 168.2 408.63 167.75C408.26 167.48 407.88 167.21 407.55 166.9C406 165.49 404.38 164.17 402.95 162.63C402.85 162.52 402.72 162.43 402.59 162.35C402.45 162.27 402.3 162.26 402.19 162.41C402.1 162.53 402.04 162.72 401.87 162.69C401.74 162.66 401.6 162.55 401.5 162.44C400.76 161.53 400 160.64 399.1 159.87C398.95 159.74 398.83 159.57 398.72 159.4C398.52 159.1 398.29 158.84 398.03 158.58C397.72 158.26 397.43 157.88 397.21 157.49C396.77 156.67 396.25 155.92 395.56 155.31C395.24 155.03 395.01 154.7 394.85 154.32C394.23 152.87 393.41 151.5 393.02 149.95C392.86 149.31 392.51 148.73 392.22 148.13C391.95 147.57 391.77 147 391.68 146.38C391.58 145.67 391.48 144.95 391.24 144.28C391.04 143.7 390.89 143.12 390.76 142.52C390.49 141.3 390.54 140.08 390.76 138.86C390.91 138.01 391.08 137.16 391.2 136.3C391.32 135.5 391.59 134.71 391.81 133.92C391.92 133.53 392 133.14 391.93 132.72C391.89 132.48 391.95 132.22 391.96 131.97C391.99 131.28 392.77 130.94 392.75 130.2C392.73 129.49 393.32 129.02 393.63 128.44C393.7 128.31 393.81 128.19 393.88 128.06C394.07 127.7 394.35 127.56 394.77 127.65C394.89 127.67 395.06 127.58 395.17 127.49C395.33 127.36 395.46 127.2 395.59 127.04C396.04 126.47 396.61 126.04 397.23 125.67C398.28 125.05 399.28 124.35 400.25 123.6C400.71 123.25 401.18 122.96 401.75 122.9C402.93 122.76 403.99 122.2 405.16 122.03C405.36 122 405.56 121.91 405.73 121.81C406.36 121.43 407.06 121.28 407.77 121.21C408.64 121.13 409.49 120.95 410.31 120.69C411.32 120.37 412.33 120.44 413.34 120.62C414.24 120.79 415.13 120.99 416.03 121.17C416.18 121.2 416.33 121.21 416.49 121.21C417.85 121.22 419.09 121.64 420.26 122.31C420.52 122.46 420.8 122.6 421.08 122.71C421.66 122.94 422.19 123.23 422.68 123.6C422.96 123.82 423.29 123.96 423.6 124.14C424.45 124.63 425.22 125.21 425.88 125.93C426.19 126.28 426.51 126.61 426.84 126.92C427.56 127.59 428.2 128.31 428.79 129.08C429.13 129.52 429.43 130.01 429.91 130.33C430.06 130.43 430.35 130.37 430.45 130.21C430.71 129.8 430.73 129.34 430.74 128.88C431.28 128.4 431.62 127.83 431.75 127.1C431.81 126.81 431.9 126.52 431.97 126.22C432.05 125.87 432.18 125.55 432.44 125.29C433.05 124.68 433.51 123.96 433.97 123.24C434.23 122.84 434.56 122.56 435.02 122.44C435.07 122.3 435.08 122.18 435.15 122.06C435.34 121.7 435.43 121.68 435.94 121.83C436.44 120.7 437.12 119.72 438.17 119.03C438.68 118.45 439.37 118.11 439.99 117.68C440.34 117.43 440.74 117.4 441.14 117.54C440.86 117.96 440.49 118.29 440.05 118.54C439.65 118.76 439.29 119.02 439.01 119.38C438.64 119.5 438.33 119.69 438.09 119.99C437.99 120.1 437.88 120.2 437.78 120.3C437.88 120.2 437.99 120.1 438.09 119.99C438.46 119.89 438.75 119.65 439.01 119.38C439.94 119.13 440.84 118.82 441.62 118.2C442.03 117.89 442.5 117.71 443.01 117.61C443.57 117.51 444.06 117.26 444.51 116.91C445.21 116.36 446.02 116.09 446.92 116.13C447.32 116.14 447.73 116.08 448.13 116.06C448.94 116.03 449.76 115.98 450.57 115.98C451.23 115.97 451.88 116.02 452.49 116.35C452.77 116.5 453.08 116.48 453.36 116.32C453.79 116.08 454.22 116.07 454.69 116.16C455.34 116.3 455.98 116.43 456.6 116.69C457.25 116.95 457.94 117.15 458.6 117.4C458.79 117.47 458.94 117.61 459.1 117.73C459.12 117.75 459.12 117.83 459.11 117.86C459.09 117.9 459.03 117.95 458.99 117.95C458.8 117.91 458.59 117.87 458.41 117.8C457.98 117.62 457.53 117.54 457.07 117.55C457.14 117.62 457.22 117.7 457.3 117.74C458.11 118.02 458.59 118.62 458.91 119.38C458.91 119.49 458.92 119.6 458.92 119.71C459.37 120.2 459.88 120.59 460.45 120.93C461 121.54 461.52 122.13 462.07 122.73C462.35 123.03 462.69 123.25 463.07 123.42C463.53 123.64 463.97 123.9 464.41 124.15C464.92 124.45 465.29 124.89 465.37 125.47C465.52 126.43 466.02 127.17 466.64 127.87C466.91 128.17 467.14 128.51 467.37 128.85C468.06 129.87 468.31 131 468.04 132.2C467.87 132.96 467.77 133.7 467.79 134.48C467.8 134.78 467.73 135.08 467.71 135.39C467.69 135.54 467.67 135.7 467.7 135.85C467.74 136.15 467.8 136.45 467.87 136.75C467.88 136.78 467.95 136.79 468 136.82C468.22 135.76 468.05 134.68 468.16 133.65C468.26 133.54 468.35 133.55 468.38 133.68C468.83 135.45 468.84 137.21 468.39 138.98C468.3 139.33 468.25 139.68 468.16 140.02C468.15 140.08 468.02 140.12 467.94 140.15C467.92 140.16 467.84 140.1 467.84 140.07C467.78 139.73 467.73 139.39 467.67 139.02C467.39 139.19 467.33 139.45 467.32 139.68C467.25 140.65 466.86 141.57 466.94 142.56C466.97 142.84 466.8 143.14 466.68 143.42C466.47 143.89 466.25 144.35 466.26 144.88C466.05 144.89 465.88 144.89 465.67 144.87C465.47 144.86 465.32 144.62 465.37 144.43C465.48 144.04 465.6 143.66 465.71 143.27C465.72 143.23 465.69 143.17 465.65 143.14C465.62 143.12 465.55 143.09 465.52 143.1C465.34 143.19 465.14 143.26 465 143.39C464.45 143.92 463.85 143.94 463.2 143.64C463.22 143.6 463.23 143.56 463.25 143.51C463.24 143.56 463.21 143.59 463.2 143.64C463.08 143.87 462.95 144.09 462.86 144.32C462.52 145.23 462.07 146.08 461.47 146.84C461.18 147.2 460.95 147.59 460.87 148.05C460.84 148.19 460.86 148.38 460.95 148.47C461.04 148.56 461.23 148.54 461.37 148.57C461.32 148.94 461.15 149.23 460.75 149.33C460.49 149.39 460.28 149.51 460.16 149.75C460.11 149.84 460.08 149.95 460.11 150.03C460.13 150.11 460.24 150.2 460.31 150.21C460.61 150.21 460.91 150.16 461.22 150.18C461.67 150.2 462.12 150.31 462.58 150.19C462.96 149.99 463.02 149.54 463.24 149.21C463.56 148.76 463.87 148.29 464.11 147.79C464.43 147.13 464.96 146.97 465.61 147.04C465.68 147.04 465.74 147.17 465.79 147.25C465.81 147.27 465.78 147.36 465.75 147.38C465.52 147.58 465.28 147.76 465.05 147.95C465.47 148.14 465.4 148.48 465.32 148.83C465.26 149.09 465.12 149.28 464.86 149.35C464.67 149.41 464.46 149.41 464.28 149.47C463.98 149.56 463.78 149.78 463.65 150.06C463.59 150.19 463.67 150.37 463.83 150.4C463.92 150.43 464.02 150.4 464.12 150.4C464.2 150.9 464.02 151.31 463.64 151.61C463.33 151.86 462.97 152.06 462.63 152.28C462.54 152.24 462.35 152.19 462.27 152.25C461.83 152.28 461.44 152.17 461.06 151.93C460.95 151.86 460.85 151.85 460.74 151.94C460 151.86 459.38 152.08 458.83 152.59C458.54 152.86 458.22 153.1 457.93 153.37C457.54 153.73 457.36 154.17 457.37 154.7C457.26 154.81 457.18 154.87 457.07 154.98ZM435.62 123.66C435.72 123.56 435.82 123.46 435.92 123.35C435.82 123.46 435.72 123.56 435.62 123.66ZM432.54 129.18C432.81 129.05 433.09 128.95 433.23 128.66C433.28 128.55 433.2 128.31 433.07 128.3C432.98 128.28 432.86 128.3 432.8 128.36C432.58 128.59 432.6 128.9 432.54 129.18C432.08 129.47 431.93 129.91 431.95 130.43C431.91 130.46 431.87 130.48 431.83 130.51C431.47 130.79 431.35 131.14 431.54 131.56C431.7 131.92 431.88 132.26 432.06 132.63C432.24 132.37 432.19 132.12 432.14 131.89C432.02 131.4 431.97 130.93 431.95 130.43C432.42 130.15 432.56 129.7 432.54 129.18ZM466.21 136.37C466.35 136.32 466.49 136.28 466.64 136.22C467.03 136.07 467.16 135.77 467.13 135.38C467.12 135.21 467 135.08 466.85 135.1C466.76 135.11 466.66 135.16 466.57 135.19C466.45 135.22 466.37 135.18 466.33 135.06C466.22 134.71 466.49 134.35 466.27 134.01C466.25 133.98 466.19 133.94 466.15 133.94C466.11 133.94 466.05 133.96 466.02 134C465.9 134.13 466.02 134.42 465.72 134.45C465.52 134.05 465.53 133.57 465.22 133.21C465.18 133.24 465.12 133.26 465.11 133.29C465.05 133.69 465.01 134.1 464.94 134.5C464.85 134.96 464.98 135.33 465.39 135.53C465.77 135.72 465.85 136.17 466.21 136.37ZM466.28 139.9C466.15 139.46 466.02 139.04 465.91 138.64C465.62 138.54 465.38 138.63 465.13 138.65C464.9 138.68 464.73 138.91 464.7 139.2C464.68 139.42 464.78 139.58 464.96 139.7C465.35 139.99 465.79 139.99 466.28 139.9ZM464.74 131.53C464.97 131.9 465.22 132.21 465.59 132.39C465.63 132.41 465.69 132.41 465.73 132.38C465.77 132.36 465.81 132.3 465.8 132.26C465.73 131.7 465.44 131.22 465.23 130.71C465.22 130.69 465.15 130.71 465.07 130.7C464.96 130.97 464.85 131.24 464.74 131.53ZM455.7 117.32C455.74 117.29 455.79 117.27 455.81 117.23C455.82 117.19 455.81 117.1 455.78 117.09C455.47 116.93 455.16 116.77 454.8 116.84C454.78 116.85 454.75 116.94 454.76 116.96C455.01 117.24 455.35 117.3 455.7 117.32ZM426.72 174.33C426.74 174.37 426.74 174.43 426.77 174.46C426.89 174.56 427.04 174.6 427.17 174.5C427.21 174.47 427.21 174.31 427.17 174.26C427.07 174.14 426.93 174.12 426.79 174.21C426.75 174.23 426.74 174.28 426.72 174.33Z" fill="#C4A1A8" fill-opacity="1.000000" fill-rule="nonzero"/>
	<path id="path" d="M438.37 175.57C439.03 175.5 439.54 175.08 440.06 174.82C440.37 174.88 440.38 175.1 440.43 175.28C440.55 175.68 440.78 175.98 441.15 176.18C440.92 176.73 440.43 176.8 439.92 176.78C439.8 176.78 439.7 176.8 439.59 176.8C439.06 177.27 438.55 177.74 438.01 178.21C437.76 178.42 437.46 178.46 437.15 178.34C436.94 178.26 436.82 178.01 436.93 177.86C437.07 177.65 437.22 177.45 437.39 177.26C437.84 176.76 438.25 176.26 438.37 175.57Z" fill="#C4A1A8" fill-opacity="1.000000" fill-rule="nonzero"/>
	<path id="path" d="M437.77 170.34C437.82 169.86 438.08 169.47 438.45 169.2C439.44 168.5 440.25 167.6 441.17 166.8C441.63 166.4 442.13 166.06 442.72 165.89C442.91 165.84 443.11 165.83 443.31 165.84C443.39 165.84 443.5 165.91 443.56 165.99C443.65 166.12 443.63 166.28 443.54 166.41C443.45 166.53 443.34 166.65 443.22 166.73C443.05 166.83 442.86 166.89 442.67 166.96C442.47 166.81 442.27 166.75 442.07 166.97C442.03 167 441.99 167.02 441.95 167.05C441.98 167.01 442.03 167 442.07 166.97C442.28 166.97 442.46 166.96 442.67 166.96C442.56 167.17 442.46 167.37 442.36 167.57C441.96 167.65 441.65 167.83 441.43 168.19C441.22 168.55 440.78 168.39 440.67 168.79C440.61 169.02 440.45 169.12 440.22 169.05C439.96 168.97 439.71 168.99 439.49 169.14C439.16 169.36 438.81 169.57 438.51 169.83C438.28 170.03 438.07 170.25 437.77 170.34Z" fill="#C4A1A8" fill-opacity="1.000000" fill-rule="nonzero"/>
	<path id="path" d="M461.97 155.61C461.73 155.65 461.48 155.7 461.23 155.74C461.1 155.76 461 155.53 461.04 155.39C461.14 155.08 461.36 154.85 461.68 154.8C462.18 154.73 462.68 154.69 463.13 154.42C463.17 154.39 463.3 154.48 463.37 154.53C463.4 154.56 463.41 154.64 463.39 154.67C463.31 154.91 463.26 155.18 463.11 155.37C462.3 156.41 461.47 157.44 460.63 158.45C460.55 158.56 460.38 158.59 460.24 158.65C460.21 158.66 460.14 158.63 460.11 158.6C460.08 158.57 460.04 158.52 460.04 158.48C460.05 158.38 460.05 158.27 460.11 158.19C460.41 157.78 460.72 157.38 461.04 156.99C461.4 156.56 461.76 156.13 461.97 155.61Z" fill="#C4A1A8" fill-opacity="1.000000" fill-rule="nonzero"/>
	<path id="path" d="M447.86 169.12C448 169.17 448.15 169.21 448.29 169.28C448.48 169.38 448.55 169.67 448.41 169.78C447.79 170.29 447.18 170.82 446.52 171.29C445.99 171.67 445.43 172 444.94 172.45C444.73 172.64 444.42 172.74 444.14 172.86C444.09 172.88 443.98 172.79 443.91 172.73C443.89 172.71 443.9 172.62 443.92 172.59C444.49 171.88 445.15 171.25 445.88 170.71C446.29 170.41 446.72 170.15 447.12 169.84C447.4 169.63 447.61 169.37 447.86 169.12Z" fill="#C4A1A8" fill-opacity="1.000000" fill-rule="nonzero"/>
	<path id="path" d="M432.82 177.94C432.77 177.88 432.67 177.8 432.67 177.73C432.66 177.41 432.8 177.08 433.1 177C433.69 176.85 434.02 176.43 434.36 175.98C434.72 175.49 435.1 175.03 435.51 174.58C435.71 174.36 435.97 174.18 436.21 174.01C436.28 173.97 436.42 173.97 436.48 174.02C436.54 174.05 436.54 174.18 436.54 174.27C436.54 174.31 436.49 174.36 436.46 174.4C435.68 175.32 434.93 176.27 434.27 177.3C434.11 177.56 433.87 177.72 433.52 177.73C433.29 177.74 433.06 177.87 432.82 177.94Z" fill="#C4A1A8" fill-opacity="1.000000" fill-rule="nonzero"/>
	<path id="path" d="M467.32 146.09C467.27 146.07 467.22 146.07 467.18 146.05C467.14 146.02 467.1 145.97 467.1 145.93C467.11 145.78 467.11 145.63 467.15 145.49C467.57 144.19 468.01 142.9 468.42 141.6C468.53 141.26 468.54 140.9 468.61 140.56C468.64 140.41 468.69 140.26 468.76 140.13C468.8 140.06 468.92 140 469 140C469.08 140.01 469.21 140.09 469.23 140.16C469.27 140.35 469.32 140.58 469.26 140.75C468.74 142.12 468.46 143.57 467.98 144.96C467.86 145.29 467.71 145.61 467.55 145.92C467.51 146 467.4 146.03 467.32 146.09Z" fill="#C4A1A8" fill-opacity="1.000000" fill-rule="nonzero"/>
	<path id="path" d="M470.24 139.33C470.35 140 470.32 140.65 470.16 141.31C470 141.95 469.86 142.6 469.7 143.24C469.59 143.64 469.38 143.89 469.26 143.79C469.07 143.63 469.16 143.42 469.19 143.23C469.32 142.32 469.46 141.41 469.59 140.5C469.65 140.02 469.85 139.62 470.24 139.33Z" fill="#C4A1A8" fill-opacity="1.000000" fill-rule="nonzero"/>
	<path id="path" d="M445.68 168.59C445.64 168.68 445.62 168.8 445.56 168.85C444.64 169.57 443.69 170.25 442.57 170.62C442.53 170.63 442.44 170.61 442.44 170.59C442.42 170.5 442.42 170.41 442.43 170.32C442.44 170.28 442.48 170.23 442.52 170.2C443.36 169.37 444.42 168.89 445.48 168.42C445.51 168.4 445.58 168.44 445.61 168.47C445.65 168.49 445.66 168.55 445.68 168.59Z" fill="#C4A1A8" fill-opacity="1.000000" fill-rule="nonzero"/>
	<path id="path" d="M469.81 129.04C469.79 129.14 469.77 129.23 469.75 129.32C469.72 129.43 469.48 129.32 469.41 129.16C469.39 129.12 469.36 129.08 469.34 129.03C469.19 128.6 469.01 128.18 468.89 127.75C468.69 126.97 468.54 126.18 468.37 125.4C468.36 125.36 468.41 125.28 468.43 125.28C468.52 125.27 468.66 125.26 468.68 125.31C468.83 125.62 469.01 125.93 469.1 126.26C469.35 127.18 469.57 128.12 469.81 129.04Z" fill="#C4A1A8" fill-opacity="1.000000" fill-rule="nonzero"/>
	<path id="path" d="M446.62 164.29C446.93 164.36 447.32 164.44 447.71 164.55C447.77 164.57 447.8 164.7 447.83 164.79C447.84 164.83 447.81 164.89 447.78 164.92C447.55 165.22 447.25 165.38 446.9 165.47C446.76 165.51 446.58 165.51 446.46 165.46C446.13 165.33 445.82 165.15 445.51 164.99C445.47 164.97 445.43 164.9 445.44 164.87C445.46 164.78 445.47 164.65 445.54 164.6C445.83 164.38 446.17 164.3 446.62 164.29Z" fill="#C4A1A8" fill-opacity="1.000000" fill-rule="nonzero"/>
	<path id="path" d="M423.36 174.33C423.51 174.14 423.68 174.11 423.88 174.25C424.04 174.37 424.07 174.63 423.94 174.79C423.88 174.86 423.8 174.96 423.72 174.97C423.32 175.02 422.93 175.06 422.53 175.06C422.27 175.06 422.06 174.91 421.93 174.67C421.83 174.5 421.75 174.32 421.82 174.1C421.87 173.93 422.14 173.86 422.47 173.92C422.57 173.95 422.66 173.99 422.75 174.03C422.96 174.13 423.15 174.23 423.36 174.33Z" fill="#C4A1A8" fill-opacity="1.000000" fill-rule="nonzero"/>
	<path id="path" d="M420.29 173.1C420.43 173.24 420.67 173.36 420.7 173.52C420.84 174.28 421.21 174.93 421.58 175.58C421.63 175.69 421.58 175.79 421.47 175.83C421.42 175.84 421.36 175.85 421.32 175.84C420.87 175.7 420.55 175.38 420.27 175.02C420.1 174.79 420.16 174.55 420.31 174.32C420.32 173.91 420.29 173.52 420.29 173.1Z" fill="#C4A1A8" fill-opacity="1.000000" fill-rule="nonzero"/>
	<path id="path" d="M449.4 165.73C449.21 165.96 449.03 166.21 448.81 166.42C448.46 166.76 448.09 166.66 447.85 166.2C447.76 166.03 447.81 165.76 447.97 165.65C448.17 165.5 448.38 165.36 448.6 165.24C448.76 165.14 448.93 165.2 449.12 165.4C449.23 165.51 449.3 165.62 449.4 165.73Z" fill="#C4A1A8" fill-opacity="1.000000" fill-rule="nonzero"/>
	<path id="path" d="M466.89 147.43C466.76 148.49 466.38 149.39 465.73 150.19C465.71 150.22 465.61 150.25 465.6 150.23C465.54 150.17 465.44 150.07 465.46 150.01C465.54 149.67 465.62 149.32 465.77 149C466.03 148.45 466.35 147.93 466.65 147.4C466.66 147.36 466.74 147.34 466.78 147.35C466.82 147.35 466.85 147.4 466.89 147.43Z" fill="#C4A1A8" fill-opacity="1.000000" fill-rule="nonzero"/>
	<path id="path" d="M468.4 147.01C468.41 147.06 468.44 147.12 468.43 147.16C468.29 147.91 468.11 148.65 467.71 149.32C467.69 149.37 467.55 149.36 467.47 149.36C467.44 149.36 467.4 149.28 467.39 149.24C467.38 149.14 467.38 149.03 467.4 148.94C467.55 148.35 467.71 147.76 467.88 147.17C467.91 147.08 467.97 146.98 468.05 146.93C468.12 146.89 468.22 146.89 468.31 146.9C468.34 146.9 468.37 146.97 468.4 147.01Z" fill="#C4A1A8" fill-opacity="1.000000" fill-rule="nonzero"/>
	<path id="path" d="M469.93 131.05C470.47 131.95 470.6 132.94 470.52 133.98C470.52 134.03 470.4 134.08 470.32 134.11C470.3 134.12 470.24 134.07 470.22 134.03C470 133.67 469.93 133.27 469.92 132.86C469.91 132.26 469.92 131.66 469.93 131.05Z" fill="#C4A1A8" fill-opacity="1.000000" fill-rule="nonzero"/>
	<path id="path" d="M441.14 174.03C441.16 173.77 441.18 173.52 441.2 173.27C441.23 172.65 441.63 172.41 442.23 172.66C442.29 172.68 442.33 172.82 442.35 172.91C442.36 172.95 442.33 173.01 442.3 173.05C441.95 173.43 441.63 173.82 441.14 174.03Z" fill="#C4A1A8" fill-opacity="1.000000" fill-rule="nonzero"/>
	<path id="path" d="M470.26 139.34C470.17 138.69 470.07 138.03 469.99 137.38C469.98 137.25 470.08 137.1 470.15 136.97C470.16 136.94 470.23 136.92 470.28 136.92C470.32 136.92 470.38 136.94 470.42 136.97C470.45 137 470.48 137.05 470.49 137.1C470.61 137.87 470.67 138.63 470.26 139.34Z" fill="#C4A1A8" fill-opacity="1.000000" fill-rule="nonzero"/>
	<path id="path" d="M438.38 171.45C438.34 171.43 438.27 171.42 438.26 171.39C438.24 171.3 438.22 171.17 438.26 171.14C438.59 170.84 438.95 170.57 439.42 170.52C439.5 170.52 439.6 170.58 439.67 170.64C439.76 170.72 439.72 170.98 439.63 171.04C439.26 171.3 439.07 171.37 438.38 171.45Z" fill="#C4A1A8" fill-opacity="1.000000" fill-rule="nonzero"/>
	<path id="path" d="M461.97 147.93C462.52 147.83 463.01 147.56 463.51 147.32C463.39 147.6 463.23 147.85 462.95 148.01C462.65 148.18 462.36 148.37 462.06 148.55C461.82 148.7 461.58 148.61 461.34 148.53C461.44 148.32 461.56 148.14 461.66 147.93C461.77 148.02 461.86 148.02 461.97 147.93Z" fill="#C4A1A8" fill-opacity="1.000000" fill-rule="nonzero"/>
	<path id="path" d="M448.42 112.86C448.59 112.9 448.74 112.94 448.88 112.98C448.91 113 448.95 113.05 448.96 113.1C448.97 113.14 448.95 113.21 448.92 113.24C448.58 113.5 448.21 113.61 447.79 113.5C447.71 113.47 447.62 113.37 447.61 113.29C447.59 113.21 447.65 113.06 447.72 113.04C447.95 112.95 448.2 112.91 448.42 112.86Z" fill="#C4A1A8" fill-opacity="1.000000" fill-rule="nonzero"/>
	<path id="path" d="M441.52 169.56C441.35 169.96 440.97 170.18 440.58 170.1C440.54 170.09 440.5 170.03 440.49 169.99C440.47 169.95 440.47 169.88 440.49 169.85C440.71 169.56 440.98 169.33 441.36 169.35C441.42 169.36 441.47 169.49 441.52 169.56Z" fill="#C4A1A8" fill-opacity="1.000000" fill-rule="nonzero"/>
	<path id="path" d="M457.37 154.68C457.69 154.92 457.76 155.08 457.66 155.27C457.53 155.55 457.33 155.77 457.06 155.93C457.02 155.95 456.92 155.96 456.92 155.95C456.88 155.87 456.81 155.77 456.84 155.7C456.9 155.45 457 155.22 457.08 154.98C457.19 154.87 457.26 154.79 457.37 154.68Z" fill="#C4A1A8" fill-opacity="1.000000" fill-rule="nonzero"/>
	<path id="path" d="M441.14 176.18C441.12 175.94 441.08 175.7 441.06 175.46C441.05 175.33 441.23 175.19 441.36 175.22C441.51 175.24 441.63 175.39 441.62 175.53C441.61 175.87 441.45 176.08 441.14 176.18Z" fill="#C4A1A8" fill-opacity="1.000000" fill-rule="nonzero"/>
	<path id="path" d="M444.26 116.13C444.25 116.17 444.25 116.24 444.22 116.26C444.02 116.42 443.79 116.52 443.52 116.46C443.48 116.45 443.44 116.4 443.42 116.36C443.41 116.31 443.42 116.24 443.44 116.22C443.64 116.01 443.88 115.98 444.14 116.04C444.19 116.05 444.22 116.1 444.26 116.13Z" fill="#C4A1A8" fill-opacity="1.000000" fill-rule="nonzero"/>
	<path id="path" d="M450.62 164.5C450.56 164.81 450.42 165.07 450.16 165.24C449.91 165.41 449.65 165.57 449.4 165.73C449.5 165.02 449.88 164.57 450.62 164.5Z" fill="#C4A1A8" fill-opacity="1.000000" fill-rule="nonzero"/>
	<path id="path" d="M457.68 161.13C457.8 160.85 457.94 160.57 458.23 160.42C458.29 160.39 458.44 160.41 458.48 160.46C458.53 160.51 458.51 160.65 458.47 160.72C458.42 160.8 458.33 160.88 458.24 160.92C458.06 161 457.87 161.06 457.68 161.13Z" fill="#C4A1A8" fill-opacity="1.000000" fill-rule="nonzero"/>
	<path id="path" d="M403.68 151.86C403.56 151.74 403.43 151.67 403.38 151.55C403.32 151.4 403.44 151.29 403.57 151.22C403.61 151.2 403.66 151.17 403.7 151.16C403.8 151.16 403.91 151.14 403.97 151.18C404.1 151.29 404.09 151.46 404.01 151.58C403.94 151.69 403.81 151.76 403.68 151.86Z" fill="#C4A1A8" fill-opacity="1.000000" fill-rule="nonzero"/>
	<path id="path" d="M442.65 174.41C442.63 174.46 442.62 174.51 442.59 174.55C442.49 174.67 442.36 174.74 442.2 174.7C442.07 174.67 441.99 174.47 442.04 174.32C442.1 174.12 442.33 174.03 442.52 174.16C442.59 174.2 442.61 174.32 442.65 174.41Z" fill="#C4A1A8" fill-opacity="1.000000" fill-rule="nonzero"/>
	<path id="path" d="M459.53 155.91C459.61 155.5 459.77 155.13 460.16 154.9C460.27 154.84 460.36 154.87 460.42 154.97C460.44 155.01 460.45 155.08 460.43 155.12C460.23 155.5 459.89 155.71 459.53 155.91Z" fill="#C4A1A8" fill-opacity="1.000000" fill-rule="nonzero"/>
	<path id="path" d="M459.2 156.21C459.07 156.49 458.95 156.77 458.81 157.04C458.8 157.08 458.72 157.11 458.69 157.1C458.58 157.06 458.56 156.97 458.6 156.85C458.69 156.53 458.9 156.33 459.2 156.21Z" fill="#C4A1A8" fill-opacity="1.000000" fill-rule="nonzero"/>
	<path id="path" d="M453.62 113.51C453.72 113.53 453.81 113.54 453.91 113.57C453.95 113.59 454.01 113.65 454 113.67C453.99 113.76 453.96 113.88 453.91 113.93C453.84 113.98 453.72 113.99 453.63 113.99C453.47 113.98 453.32 113.79 453.39 113.68C453.44 113.61 453.54 113.57 453.62 113.51Z" fill="#C4A1A8" fill-opacity="1.000000" fill-rule="nonzero"/>
	<path id="path" d="M457.68 161.12C457.56 161.62 457.3 161.98 456.76 162.04C456.94 161.61 457.27 161.33 457.68 161.12Z" fill="#C4A1A8" fill-opacity="1.000000" fill-rule="nonzero"/>
	<path id="path" d="M448.35 115.49C448.3 115.44 448.26 115.38 448.21 115.32C448.26 115.37 448.41 115.37 448.46 115.43C448.42 115.45 448.39 115.47 448.35 115.49Z" fill="#C4A1A8" fill-opacity="1.000000" fill-rule="nonzero"/>
	<path id="path" d="M462.58 146.39C462.48 146.77 462.28 147.07 461.96 147.3C462.03 146.9 462.26 146.61 462.58 146.39Z" fill="#C4A1A8" fill-opacity="1.000000" fill-rule="nonzero"/>
	<path id="path" d="M469.26 138.49C469.22 138.51 469.18 138.53 469.15 138.55C469.13 138.46 469.1 138.38 469.1 138.29C469.1 138.27 469.17 138.25 469.21 138.24C469.22 138.32 469.24 138.41 469.26 138.49Z" fill="#C4A1A8" fill-opacity="1.000000" fill-rule="nonzero"/>
	<path id="path" d="M398.87 170.23C398.89 170.28 398.92 170.32 398.91 170.36C398.78 170.34 398.66 170.34 398.75 170.25C398.77 170.23 398.83 170.24 398.87 170.23Z" fill="#C4A1A8" fill-opacity="1.000000" fill-rule="nonzero"/>
	<path id="path" d="M425.17 123.75C425.14 123.77 425.07 123.82 425.07 123.81C425.01 123.75 424.96 123.69 424.91 123.62C424.95 123.6 425.01 123.55 425.02 123.55C425.08 123.61 425.12 123.68 425.17 123.75Z" fill="#C4A1A8" fill-opacity="1.000000" fill-rule="nonzero"/>
	<path id="path" d="M466.55 144.85C466.58 145 466.61 145.14 466.62 145.29C466.62 145.33 466.57 145.38 466.53 145.4C466.42 145.45 466.32 145.41 466.3 145.29C466.27 145.15 466.28 144.99 466.27 144.84C466.38 144.84 466.45 144.85 466.55 144.85Z" fill="#C4A1A8" fill-opacity="1.000000" fill-rule="nonzero"/>
	<path id="path" d="M445.77 165.71C445.76 165.74 445.84 165.84 445.81 165.85C445.83 165.81 445.75 165.74 445.77 165.71Z" fill="#C4A1A8" fill-opacity="1.000000" fill-rule="nonzero"/>
	<path id="path" d="M464.11 150.38C464.16 150.3 464.19 150.2 464.26 150.13C464.35 150.04 464.44 150.07 464.46 150.18C464.47 150.22 464.43 150.28 464.39 150.3C464.3 150.34 464.21 150.35 464.11 150.38Z" fill="#C4A1A8" fill-opacity="1.000000" fill-rule="nonzero"/>
	<path id="path" d="" fill="#C4A1A8" fill-opacity="1.000000" fill-rule="nonzero"/>
	<path id="path" d="M447.88 169.11C447.83 169 447.7 168.9 447.83 168.76C447.83 168.86 447.89 169.02 447.88 169.11Z" fill="#C4A1A8" fill-opacity="1.000000" fill-rule="nonzero"/>
	<path id="path" d="M430.1 128.28C430.35 128.44 430.58 128.62 430.71 128.89C430.38 128.82 430.19 128.6 430.1 128.28Z" fill="#C4A1A8" fill-opacity="1.000000" fill-rule="nonzero"/>
	<path id="path" d="M468.94 145.62C468.91 145.59 468.78 145.64 468.79 145.62C468.83 145.49 468.89 145.49 468.94 145.62Z" fill="#C4A1A8" fill-opacity="1.000000" fill-rule="nonzero"/>
	<path id="path" d="M442.35 116.91C442.15 117.01 441.95 117.11 441.75 117.22C441.95 117.12 442.15 117.01 442.35 116.91Z" fill="#C4A1A8" fill-opacity="1.000000" fill-rule="nonzero"/>
	<path id="path" d="M441.75 117.22C441.54 117.32 441.33 117.42 441.12 117.52C441.33 117.41 441.54 117.32 441.75 117.22Z" fill="#C4A1A8" fill-opacity="1.000000" fill-rule="nonzero"/>
	<path id="path" d="M465.95 125.52C465.99 125.58 466.03 125.65 466.07 125.71C466.05 125.67 465.95 125.57 465.95 125.52Z" fill="#C4A1A8" fill-opacity="1.000000" fill-rule="nonzero"/>
	<path id="path" d="M469.94 131.04C469.91 131 469.88 130.97 469.85 130.93C469.88 130.97 469.92 131 469.94 131.04Z" fill="#C4A1A8" fill-opacity="1.000000" fill-rule="nonzero"/>
	<path id="path" d="M463.51 147.32C463.52 147.28 463.53 147.23 463.55 147.19C463.53 147.23 463.52 147.28 463.51 147.32Z" fill="#C4A1A8" fill-opacity="1.000000" fill-rule="nonzero"/>
	<path id="path" d="M461.96 147.3C461.96 147.51 461.97 147.72 461.97 147.93C461.86 147.93 461.76 147.92 461.65 147.92C461.75 147.71 461.86 147.5 461.96 147.3Z" fill="#C4A1A8" fill-opacity="1.000000" fill-rule="nonzero"/>
	<path id="path" d="M450.95 164.2C451.02 164.17 451.09 164.13 451.16 164.09C451.11 164.11 451 164.19 450.95 164.2Z" fill="#C4A1A8" fill-opacity="1.000000" fill-rule="nonzero"/>
	<path id="path" d="M436.24 171.57C436.31 171.53 436.37 171.49 436.43 171.45C436.39 171.47 436.29 171.57 436.24 171.57Z" fill="#C4A1A8" fill-opacity="1.000000" fill-rule="nonzero"/>
	<path id="path" d="M458.9 119.36C458.9 119.47 458.9 119.57 458.9 119.68C458.9 119.57 458.9 119.47 458.9 119.36Z" fill="#C4A1A8" fill-opacity="1.000000" fill-rule="nonzero"/>
	<path id="path" d="" fill="#C4A1A8" fill-opacity="1.000000" fill-rule="nonzero"/>
	<path id="path" d="" fill="#C4A1A8" fill-opacity="1.000000" fill-rule="nonzero"/>
	<path id="path" d="" fill="#C4A1A8" fill-opacity="1.000000" fill-rule="nonzero"/>
	<path id="path" d="M430.11 128.27C430.01 128.17 429.91 128.06 429.8 127.96C429.91 128.06 430.01 128.17 430.11 128.27Z" fill="#C4A1A8" fill-opacity="1.000000" fill-rule="nonzero"/>
	<path id="path" d="M461.05 151.91C460.95 151.91 460.85 151.91 460.74 151.91C460.85 151.91 460.94 151.91 461.05 151.91Z" fill="#C4A1A8" fill-opacity="1.000000" fill-rule="nonzero"/>
	<path id="path" d="M462.62 152.26C462.5 152.34 462.38 152.33 462.27 152.22C462.37 152.2 462.53 152.27 462.62 152.26Z" fill="#C4A1A8" fill-opacity="1.000000" fill-rule="nonzero"/>
	<path id="path" d="M459.51 155.9C459.41 156 459.31 156.11 459.2 156.21C459.31 156.11 459.41 156 459.51 155.9Z" fill="#C4A1A8" fill-opacity="1.000000" fill-rule="nonzero"/>
	<path id="path" d="" fill="#C4A1A8" fill-opacity="1.000000" fill-rule="nonzero"/>
	<path id="path" d="M450.64 164.52C450.74 164.41 450.84 164.31 450.95 164.2C450.84 164.31 450.74 164.41 450.64 164.52Z" fill="#C4A1A8" fill-opacity="1.000000" fill-rule="nonzero"/>
	<path id="path" d="M442.36 167.58C442.36 167.68 442.36 167.77 442.36 167.87C442.36 167.77 442.36 167.69 442.36 167.58Z" fill="#C4A1A8" fill-opacity="1.000000" fill-rule="nonzero"/>
	<path id="path" d="" fill="#C4A1A8" fill-opacity="1.000000" fill-rule="nonzero"/>
	<path id="path" d="M437.76 170.33C437.66 170.43 437.56 170.54 437.45 170.64C437.55 170.53 437.66 170.43 437.76 170.33Z" fill="#C4A1A8" fill-opacity="1.000000" fill-rule="nonzero"/>
	<path id="path" d="" fill="#C4A1A8" fill-opacity="1.000000" fill-rule="nonzero"/>
	<path id="path" d="M443.27 173.73C443.38 173.73 443.49 173.73 443.6 173.73C443.5 173.73 443.37 173.73 443.27 173.73Z" fill="#C4A1A8" fill-opacity="1.000000" fill-rule="nonzero"/>
	<path id="path" d="M438.37 175.24C438.37 175.35 438.37 175.46 438.37 175.57C438.37 175.47 438.37 175.34 438.37 175.24Z" fill="#C4A1A8" fill-opacity="1.000000" fill-rule="nonzero"/>
	<path id="path" d="" fill="#C4A1A8" fill-opacity="1.000000" fill-rule="nonzero"/>
</svg>
