<svg width="487.680786" height="355.392761" viewBox="0 0 487.681 355.393" fill="none" xmlns="http://www.w3.org/2000/svg" xmlns:xlink="http://www.w3.org/1999/xlink">
	<desc>
			Created with Pixso.
	</desc>
	<defs/>
	<path id="path" d="M86.5 173.28C109.51 173.28 132.77 181.19 132.77 208.17L132.77 351.43L109.51 355.14L109.51 208.17C109.51 181.19 97.88 177.24 90.21 177.24L86.5 173.28ZM227.84 351.43C243.67 350.19 258.02 341.53 266.68 328.17L270.4 335.84C258.76 347.47 236.25 355.39 220.17 355.39C183.79 355.39 154.1 334.6 150.88 293.28C150.64 290.81 150.64 288.33 150.64 285.61C150.64 239.09 181.57 215.84 220.17 215.84C222.15 215.84 224.37 216.08 226.35 216.08C227.09 216.08 227.84 216.33 228.58 216.33C229.82 216.58 231.05 216.58 232.29 216.83C233.28 216.83 234.02 217.07 235.01 217.07C236 217.32 236.99 217.57 237.98 217.82C238.97 218.06 239.96 218.06 240.95 218.31C241.69 218.56 242.68 218.8 243.67 219.05C244.66 219.3 245.65 219.79 246.39 220.04C247.38 220.29 248.13 220.54 249.12 221.03C249.86 221.28 250.85 221.77 251.84 222.02C252.58 222.52 253.32 222.76 254.06 223.01C255.05 223.51 256.04 224 256.79 224.5C257.53 224.99 258.27 225.24 259.01 225.73C260 226.23 260.75 226.72 261.49 227.22C261.98 227.47 262.48 227.71 262.72 227.96C276.83 237.86 286.23 253.2 288.46 270.02L266.68 270.02C234.02 270.02 206.06 284.37 173.65 285.36L173.65 285.61C173.65 332.13 204.83 351.43 227.84 351.43ZM212.5 219.79C182.8 219.79 174.39 251.71 173.9 281.65C205.32 280.42 232.79 266.81 264.46 266.31C262.72 258.15 259.51 250.48 255.05 243.55C253.82 241.57 252.33 240.08 251.1 238.35C250.85 238.1 250.6 237.61 250.11 237.36C249.12 236.13 247.88 234.89 246.64 233.65C246.15 233.4 245.65 232.91 245.4 232.66C243.92 231.42 242.44 230.19 240.7 228.95C238.97 227.71 237.24 226.72 235.51 225.98C235.26 225.73 234.76 225.49 234.27 225.24C233.03 224.5 231.55 224 230.06 223.26C229.82 223.26 229.32 223.01 229.07 223.01C227.34 222.27 225.61 221.77 223.88 221.28C223.63 221.28 223.14 221.03 222.89 221.03C221.4 220.78 220.17 220.54 218.68 220.29C218.19 220.29 217.69 220.04 217.44 220.04C215.71 219.79 213.98 219.79 212.5 219.79ZM358.95 339.8L366.62 347.47C361.43 352.42 354.5 355.14 347.32 355.14C320.35 355.14 304.76 339.8 304.76 304.91L304.76 223.75L289.42 223.75L289.42 219.79L304.76 219.79L304.76 196.54L328.02 192.58L328.02 219.79L358.95 219.79L358.95 223.75L328.02 223.75L328.02 308.87C328.02 335.84 331.98 351.43 347.32 351.43C354.99 351.43 358.95 339.8 358.95 339.8ZM433.49 277.94C449.08 280.91 487.68 289.57 487.68 316.54C487.68 347.47 468.38 355.39 429.53 355.39C383.01 355.39 371.63 332.13 371.63 332.13L379.3 320.5C379.3 320.5 394.64 351.43 429.53 351.43C456.75 351.43 464.42 335.84 464.42 316.54C464.42 297.24 448.83 285.61 429.53 281.65C414.44 278.68 371.63 277.94 371.63 250.72C371.63 223.75 394.64 215.84 429.53 215.84C448.83 215.84 472.09 220.04 483.72 227.96L476.29 243.8C465.41 228.95 448.09 220.04 429.53 219.79C406.27 219.79 394.64 231.42 394.64 250.72C394.64 272.25 414.19 273.98 433.49 277.94Z" fill="#C4A1A8" fill-opacity="1.000000" fill-rule="nonzero"/>
	<path id="path" d="M127.67 3.95L150.93 0L150.93 178.15L127.67 181.86L127.67 77.44C91.05 77.44 59.63 93.03 23.01 93.03L23.01 178.15L0 181.86L0 3.95L23.01 0L23.01 89.07C59.63 89.07 91.05 73.48 127.67 73.48L127.67 3.95ZM247.32 178.15C263.15 176.91 277.51 168.25 286.17 154.89L289.88 162.56C278.25 174.19 255.73 182.11 239.65 182.11C203.28 182.11 173.58 161.32 170.37 120C170.12 117.53 170.12 115.05 170.12 112.33C170.12 65.81 201.05 42.55 239.65 42.55C241.63 42.55 243.86 42.8 245.83 42.8C246.58 42.8 247.32 43.05 248.06 43.05C249.3 43.3 250.54 43.3 251.77 43.54C252.76 43.54 253.5 43.79 254.49 43.79C255.48 44.04 256.47 44.29 257.46 44.53C258.45 44.78 259.44 44.78 260.43 45.03C261.18 45.28 262.17 45.52 263.15 45.77C264.14 46.02 265.13 46.51 265.88 46.76C266.87 47.01 267.61 47.25 268.6 47.75C269.34 48 270.33 48.49 271.32 48.74C272.06 49.23 272.8 49.48 273.55 49.73C274.54 50.22 275.53 50.72 276.27 51.21C277.01 51.71 277.75 51.96 278.5 52.45C279.49 52.95 280.23 53.44 280.97 53.94C281.46 54.18 281.96 54.43 282.21 54.68C296.31 64.58 305.71 79.92 307.94 96.74L286.17 96.74C253.5 96.74 225.54 111.09 193.13 112.08L193.13 112.33C193.13 158.85 224.31 178.15 247.32 178.15ZM231.98 46.51C202.29 46.51 193.87 78.43 193.38 108.37C224.8 107.13 252.27 93.52 283.94 93.03C282.21 84.86 278.99 77.19 274.54 70.27C273.3 68.29 271.81 66.8 270.58 65.07C270.33 64.82 270.08 64.33 269.59 64.08C268.6 62.84 267.36 61.61 266.12 60.37C265.63 60.12 265.13 59.63 264.89 59.38C263.4 58.14 261.92 56.9 260.19 55.67C258.45 54.43 256.72 53.44 254.99 52.7C254.74 52.45 254.25 52.2 253.75 51.96C252.52 51.21 251.03 50.72 249.55 49.98C249.3 49.98 248.8 49.73 248.56 49.73C246.82 48.99 245.09 48.49 243.36 48C243.11 48 242.62 47.75 242.37 47.75C240.89 47.5 239.65 47.25 238.16 47.01C237.67 47.01 237.17 46.76 236.93 46.76C235.19 46.51 233.46 46.51 231.98 46.51ZM432.34 42.55L436.05 44.04L366.52 214.03C359.1 232.09 333.37 230.85 323.72 222.93L327.43 215.26C335.35 221.7 355.64 229.86 362.81 212.54L383.1 163.3L368.26 173.69L308.62 56.41L327.68 42.8L385.58 156.87L432.34 42.55ZM458.96 181.86C452.77 181.86 447.58 176.66 447.58 170.48C447.58 164.04 452.77 158.85 458.96 158.85C465.39 158.85 470.59 164.04 470.59 170.48C470.59 176.66 465.39 181.86 458.96 181.86ZM466.88 131.63L451.29 135.59L447.58 3.95L470.59 0L466.88 131.63Z" fill="#C4A1A8" fill-opacity="1.000000" fill-rule="nonzero"/>
</svg>
