<svg width="35.000000" height="115.008789" viewBox="0 0 35 115.009" fill="none" xmlns="http://www.w3.org/2000/svg" xmlns:xlink="http://www.w3.org/1999/xlink">
	<desc>
			Created with Pixso.
	</desc>
	<defs/>
	<path id="arrow" d="M17.85 114L17.14 114C13.55 108.15 8.12 103.23 1 101.42C0.99 101.42 1.29 101.01 1.3 100.98C1.31 100.96 1.29 101.01 1.3 101.01C6.75 102.38 13.21 107.57 17.14 111.36C16.63 92.8 17.39 70.54 16.78 52L18.21 52L17.85 111.36C21.78 107.57 28.49 102.49 34 101.11L34 101.75C26.86 103.54 22.52 107.36 17.85 114Z" fill="#F5F3EA" fill-opacity="1.000000" fill-rule="evenodd"/>
	<path id="arrow" d="M34 101.11C28.49 102.49 21.78 107.57 17.85 111.36L18.21 52L16.78 52C17.39 70.54 16.63 92.8 17.14 111.36C13.21 107.57 6.75 102.38 1.3 101.01C1.29 101.01 1.31 100.96 1.3 100.98C1.29 101.01 0.99 101.42 1 101.42C8.12 103.23 13.55 108.15 17.14 114L17.85 114C22.52 107.36 26.86 103.54 34 101.75L34 101.11Z" stroke="#F5F3EA" stroke-opacity="1.000000" stroke-width="2.000000"/>
	<line id="Линия 5" x1="18.000000" y1="114.008789" x2="17.000000" y2="0.008789" stroke="#F5F3EA" stroke-opacity="1.000000" stroke-width="2.000000"/>
</svg>
