<svg width="1.000000" height="1.000000" viewBox="0 0 1 1" fill="none" xmlns="http://www.w3.org/2000/svg" xmlns:xlink="http://www.w3.org/1999/xlink">
	<desc>
			Created with Pixso.
	</desc>
	<defs/>
	<path id="path" d="M0.51 0.88C0.51 0.89 0.5 0.89 0.49 0.9C0.48 0.89 0.47 0.89 0.46 0.88C0.42 0.86 0.36 0.82 0.31 0.77C0.19 0.67 0.1 0.55 0.1 0.41C0.1 0.23 0.27 0.08 0.5 0.08C0.72 0.08 0.89 0.23 0.89 0.41C0.89 0.54 0.79 0.67 0.67 0.77C0.62 0.82 0.56 0.86 0.51 0.88ZM1 0.41C1 0.75 0.5 1 0.5 1C0.47 1 0 0.75 0 0.41C0 0.18 0.22 0 0.5 0C0.77 0 1 0.18 1 0.41ZM0.6 0.41C0.6 0.46 0.55 0.5 0.5 0.5C0.44 0.5 0.39 0.46 0.39 0.41C0.39 0.37 0.44 0.33 0.5 0.33C0.55 0.33 0.6 0.37 0.6 0.41ZM0.69 0.41C0.69 0.5 0.61 0.58 0.5 0.58C0.38 0.58 0.3 0.5 0.3 0.41C0.3 0.32 0.38 0.25 0.5 0.25C0.61 0.25 0.69 0.32 0.69 0.41Z" fill="#C4A1A8" fill-opacity="1.000000" fill-rule="evenodd"/>
</svg>
