<svg width="1053.735718" height="432.316284" viewBox="0 0 1053.74 432.316" fill="none" xmlns="http://www.w3.org/2000/svg" xmlns:xlink="http://www.w3.org/1999/xlink">
	<desc>
			Created with Pixso.
	</desc>
	<defs/>
	<path id="Vector 3" d="M849.37 40.01C849.37 40.01 105.37 39.01 133.37 73.01C161.37 107.01 977.37 145.01 953.37 169.01C929.37 193.01 25.19 106.51 40.19 128.51C55.19 150.51 998.37 235.01 1013.38 257.01C1028.38 279.01 55.19 155.01 40.19 169.01C25.19 183.01 997.37 299.01 1013.38 313.01C1029.38 327.01 196.37 288.01 161.37 313.01C126.37 338.01 816.19 372.51 816.19 372.51M237.3 392.24C237.3 392.24 520 359.62 696.19 364.51C872.38 369.39 948.19 392.24 948.19 392.24" stroke="#F7F5EA" stroke-opacity="0.800000" stroke-width="80.000000" stroke-linecap="round"/>
</svg>
