<svg width="401.177002" height="182.110962" viewBox="0 0 401.177 182.111" fill="none" xmlns="http://www.w3.org/2000/svg" xmlns:xlink="http://www.w3.org/1999/xlink">
	<desc>
			Created with Pixso.
	</desc>
	<defs/>
	<path id="path" d="M0 0C23.01 0 46.27 7.91 46.27 34.88L46.27 178.15L23.01 181.86L23.01 34.88C23.01 7.91 11.38 3.95 3.71 3.95L0 0ZM141.33 178.15C157.17 176.91 171.52 168.25 180.18 154.89L183.89 162.56C172.26 174.19 149.75 182.11 133.66 182.11C97.29 182.11 67.6 161.32 64.38 120C64.13 117.53 64.13 115.05 64.13 112.33C64.13 65.81 95.06 42.55 133.66 42.55C135.64 42.55 137.87 42.8 139.85 42.8C140.59 42.8 141.33 43.05 142.07 43.05C143.31 43.3 144.55 43.3 145.79 43.54C146.78 43.54 147.52 43.79 148.51 43.79C149.5 44.04 150.49 44.29 151.48 44.53C152.47 44.78 153.46 44.78 154.45 45.03C155.19 45.28 156.18 45.52 157.17 45.77C158.16 46.02 159.15 46.51 159.89 46.76C160.88 47.01 161.62 47.25 162.61 47.75C163.35 48 164.34 48.49 165.33 48.74C166.08 49.23 166.82 49.48 167.56 49.73C168.55 50.22 169.54 50.72 170.28 51.21C171.02 51.71 171.77 51.96 172.51 52.45C173.5 52.95 174.24 53.44 174.98 53.94C175.48 54.18 175.97 54.43 176.22 54.68C190.32 64.58 199.73 79.92 201.95 96.74L180.18 96.74C147.52 96.74 119.56 111.09 87.14 112.08L87.14 112.33C87.14 158.85 118.32 178.15 141.33 178.15ZM125.99 46.51C96.3 46.51 87.89 78.43 87.39 108.37C118.82 107.13 146.28 93.52 177.95 93.03C176.22 84.86 173 77.19 168.55 70.27C167.31 68.29 165.83 66.8 164.59 65.07C164.34 64.82 164.1 64.33 163.6 64.08C162.61 62.84 161.37 61.61 160.14 60.37C159.64 60.12 159.15 59.63 158.9 59.38C157.42 58.14 155.93 56.9 154.2 55.67C152.47 54.43 150.74 53.44 149 52.7C148.75 52.45 148.26 52.2 147.77 51.96C146.53 51.21 145.04 50.72 143.56 49.98C143.31 49.98 142.82 49.73 142.57 49.73C140.84 48.99 139.11 48.49 137.37 48C137.13 48 136.63 47.75 136.38 47.75C134.9 47.5 133.66 47.25 132.18 47.01C131.68 47.01 131.19 46.76 130.94 46.76C129.21 46.51 127.48 46.51 125.99 46.51ZM272.45 166.52L280.12 174.19C274.92 179.14 268 181.86 260.82 181.86C233.85 181.86 218.26 166.52 218.26 131.63L218.26 50.47L202.92 50.47L202.92 46.51L218.26 46.51L218.26 23.25L241.52 19.29L241.52 46.51L272.45 46.51L272.45 50.47L241.52 50.47L241.52 135.59C241.52 162.56 245.48 178.15 260.82 178.15C268.49 178.15 272.45 166.52 272.45 166.52ZM346.98 104.66C362.57 107.63 401.17 116.29 401.17 143.26C401.17 174.19 381.87 182.11 343.03 182.11C296.51 182.11 285.13 158.85 285.13 158.85L292.8 147.22C292.8 147.22 308.14 178.15 343.03 178.15C370.24 178.15 377.91 162.56 377.91 143.26C377.91 123.96 362.33 112.33 343.03 108.37C327.93 105.4 285.13 104.66 285.13 77.44C285.13 50.47 308.14 42.55 343.03 42.55C362.33 42.55 385.58 46.76 397.21 54.68L389.79 70.51C378.9 55.67 361.58 46.76 343.03 46.51C319.77 46.51 308.14 58.14 308.14 77.44C308.14 98.97 327.68 100.7 346.98 104.66Z" fill="#C4A1A8" fill-opacity="1.000000" fill-rule="nonzero"/>
</svg>
